<?xml version="1.0" encoding="utf-8"?>
<?xml-stylesheet type="text/xsl" href="rss1.xsl"?>
<rss version="2.0" xmlns:atom="http://www.w3.org/2005/Atom" xmlns:content="http://purl.org/rss/1.0/modules/content/" xmlns:dc="http://purl.org/dc/elements/1.1/" xmlns:media="http://search.yahoo.com/mrss/">
<channel>
 <title>Getty</title>
 <link>http://www.gettyimg.com/</link>
 <atom:link href="http://www.gettyimg.com/" rel="self" type="application/rss+xml" />

 
                <item>
                <title><![CDATA[【Albums (lossless)】FLAC - CYNDI LAUPER - 2024 - LET THE CANARY SING [24BIT-44.1KHZ]]]></title>
                <link><![CDATA[https://sharemania.us/threads/cyndi-lauper-2024-let-the-canary-sing-24bit-44-1khz.246528/]]></link>
                <description><![CDATA[<article>
<blockquote class="messageText SelectQuoteContainer ugc baseHtml">
<div style="text-align: center"><img src="https://static.qobuz.com/images/covers/za/ft/q30dzedbvftza_600.jpg" class="bbCodeImage LbImage" alt="[​IMG]" data-url="https://static.qobuz.com/images/covers/za/ft/q30dzedbvftza_600.jpg" style=""> <br>
<br>
<b>Artist</b>: Cyndi Lauper<br>
<b>Album</b>: Let The Canary Sing<br>
<b>Date</b>: 31 May 2014<br>
<b>Genre</b>: Pop<br>
<b>Quality</b>: 24bit-44.1kHz <span style="font-size: 18px"><span style="color: #b30000"><b>[SOME SONGS: 24bit-88.2kHz]</b></span></span><br>
<b>Country</b>: USA<br>
<b>Size</b>: 1,2GB<br>
<br>
<b>Tracklist</b>:<br>
<br>
1-I'm Gonna Be Strong [by Blue Angel] 02:52<br>
2-Money Changes Everything (Live at Irvine Meadows Amphitheater, Laguna Hills, CA - 09/22/1984 - Let The Canary Sing Edit) 04:33<br>
3-Time After Time 03:59<br>
4-Who Let In The Rain (Single Version) 04:15<br>
5-I Drove All Night 04:09<br>
6-Into the Nightlife (Let The Canary Sing Edit) 03:42<br>
7-Sisters of Avalon 04:19<br>
8-Girls Just Want to Have Fun 03:52<br>
9-The Goonies 'R' Good Enough (Let The Canary Sing Edit) 03:02<br>
10-She Bop 03:45<br>
11-Early In The Mornin' 03:49<br>
12-At Last (Let The Canary Sing Edit) 02:33<br>
13-True Colors 03:46<br>
14-All Through the Night 04:24<br>
15-The World Is Stone 04:16<br>
16-That's What I Think 04:38<br>
17-Change of Heart<br>
Cyndi Lauper 04:23<br>
18-My First Night Without You 03:01<br>
19-You Don't Know 05:12<br>
20-Funnel Of Love 03:15<br>
21-Heading West 03:52<br>
22-Sally's Pigeons 03:47<br>
<br>
<b><span style="font-size: 22px"><span style="color: #b30000">Send.cm</span></span></b>:<br>
<br>
<div class="bbCodeBlock bbCodeVfcHH HiddenContent">
<div class="attribution type">Hidden Content:</div>
<blockquote>You must either reply or click 'Like' to see the hidden information contained here.</blockquote>
</div></div>
<div class="messageTextEndMarker">&nbsp;</div>
</blockquote>
</article>]]></description>
                <author><![CDATA[XRB80]]></author>
                </item>

                
                <item>
                <title><![CDATA[【UPSCALED】[Re-Up] A-Ha - Take On Me (Chief Mouse Remastered)]]></title>
                <link><![CDATA[https://sharemania.us/threads/re-up-a-ha-take-on-me-chief-mouse-remastered.246534/]]></link>
                <description><![CDATA[<article>
<blockquote class="messageText SelectQuoteContainer ugc baseHtml">
Thanks
<div class="messageTextEndMarker">&nbsp;</div>
</blockquote>
</article>]]></description>
                <author><![CDATA[thankstome]]></author>
                </item>

                
                <item>
                <title><![CDATA[【Music Videos】Gerardo - Derrumbe (1080p) (Clean)]]></title>
                <link><![CDATA[https://sharemania.us/threads/gerardo-derrumbe-1080p-clean.246531/]]></link>
                <description><![CDATA[<article>
<blockquote class="messageText SelectQuoteContainer ugc baseHtml">
<img src="https://images2.imgbox.com/12/df/sKrGjhrh_o.jpg" class="bbCodeImage LbImage" alt="[​IMG]" data-url="https://images2.imgbox.com/12/df/sKrGjhrh_o.jpg" style=""><br>
<img src="https://images2.imgbox.com/05/a6/V6ItYQK9_o.jpg" class="bbCodeImage LbImage" alt="[​IMG]" data-url="https://images2.imgbox.com/05/a6/V6ItYQK9_o.jpg" style=""><br>
<img src="https://images2.imgbox.com/8e/1b/RPYtwvSO_o.jpg" class="bbCodeImage LbImage" alt="[​IMG]" data-url="https://images2.imgbox.com/8e/1b/RPYtwvSO_o.jpg" style=""><br>
<br>
<div class="ToggleTriggerAnchor bbCodeSpoilerContainer">
<button type="button" class="button bbCodeSpoilerButton ToggleTrigger Tooltip JsOnly" data-target="> .SpoilerTarget"><span>Spoiler: <span class="SpoilerTitle">Details</span></span></button>
<div class="SpoilerTarget bbCodeSpoilerText">
<div class="bbCodeBlock bbCodeCode">
<div class="type">Code:</div>
<pre>Format                      : Matroska
Format version              : Version 4
File size                   : 1.71 GiB
Duration                    : 3 min 53 s
Overall bit rate            : 63.2 Mb/s
Frame rate                  : 23.976 FPS
Encoded date                : 2020-01-07 19:48:41 UTC
Writing application         : mkvmerge v38.0.0 ('The Silent Type') 64-bit
Writing library             : libebml v1.3.9 + libmatroska v1.5.2

Video
ID                          : 1
Format                      : AVC
Format/Info                 : Advanced Video Codec
Format profile              : High@L4
Format settings             : CABAC / 5 Ref Frames
Format settings, CABAC      : Yes
Format settings, Reference  : 5 frames
Codec ID                    : V_MPEG4/ISO/AVC
Duration                    : 3 min 53 s
Bit rate                    : 61.6 Mb/s
Width                       : 1 290 pixels
Height                      : 1 080 pixels
Display aspect ratio        : 1.194
Frame rate mode             : Constant
Frame rate                  : 23.976 (24000/1001) FPS
Color space                 : YUV
Chroma subsampling          : 4:2:0
Bit depth                   : 8 bits
Scan type                   : Progressive
Bits/(Pixel*Frame)          : 1.845
Stream size                 : 1.67 GiB (98%)
Writing library             : x264 core 157 r2935M 545de2f
Encoding settings           : cabac=1 / ref=5 / deblock=1:-1:-1 / analyse=0x3:0x113 / me=hex / subme=8 / psy=1 / psy_rd=1.00:0.15 / mixed_ref=1 / me_range=16 / chroma_me=1 / trellis=2 / 8x8dct=1 / cqm=0 / deadzone=21,11 / fast_pskip=1 / chroma_qp_offset=-3 / threads=6 / lookahead_threads=1 / sliced_threads=0 / nr=0 / decimate=1 / interlaced=0 / bluray_compat=0 / constrained_intra=0 / bframes=3 / b_pyramid=2 / b_adapt=1 / b_bias=0 / direct=3 / weightb=1 / open_gop=0 / weightp=2 / keyint=250 / keyint_min=23 / scenecut=40 / intra_refresh=0 / rc_lookahead=50 / rc=crf / mbtree=1 / crf=16.0 / qcomp=0.60 / qpmin=0 / qpmax=69 / qpstep=4 / ip_ratio=1.40 / aq=1:1.00
Default                     : Yes
Forced                      : No
Color range                 : Limited
Matrix coefficients         : BT.470 System B/G

Audio
ID                          : 2
Format                      : PCM
Format settings             : Little / Signed
Codec ID                    : A_PCM/INT/LIT
Duration                    : 3 min 53 s
Bit rate mode               : Constant
Bit rate                    : 1 536 kb/s
Channel(s)                  : 2 channels
Sampling rate               : 48.0 kHz
Frame rate                  : 32.002 FPS (1500 SPF)
Bit depth                   : 16 bits
Delay relative to video     : -33 ms
Stream size                 : 42.7 MiB (2%)
Default                     : Yes
Forced                      : No

</pre>
</div></div>
</div><br>
<a href="https://sharemania.us/threads/a-ha-take-on-me-chief-mouse-remastered.119388/" class="internalLink">Original Post</a><br>
<br>
<div class="bbCodeBlock bbCodeVfcHH HiddenContent">
<div class="attribution type">Hidden Content:</div>
<blockquote>You must reply before you can see the hidden data contained here.</blockquote>
</div>
<div class="messageTextEndMarker">&nbsp;</div>
</blockquote>
</article>]]></description>
                <author><![CDATA[DJ-RoGeRs-BS]]></author>
                </item>

                
                <item>
                <title><![CDATA[【Requests】[REQ AUD] - Orville Peck &amp; Kylie Minogue - Midnight Ride (Qobuz Hi-Res)]]></title>
                <link><![CDATA[https://sharemania.us/threads/orville-peck-kylie-minogue-midnight-ride-qobuz-hi-res.246532/]]></link>
                <description><![CDATA[<article>
<blockquote class="messageText SelectQuoteContainer ugc baseHtml">
<img src="https://i.ibb.co/ZNd15G7/Gerardo-Derrumbe-mp4-thumbs-2024-06-09-13-50-13.jpg" class="bbCodeImage LbImage" alt="[​IMG]" data-url="https://i.ibb.co/ZNd15G7/Gerardo-Derrumbe-mp4-thumbs-2024-06-09-13-50-13.jpg" style=""> <br>
<br>
<div class="ToggleTriggerAnchor bbCodeSpoilerContainer">
<button type="button" class="button bbCodeSpoilerButton ToggleTrigger Tooltip JsOnly" data-target="> .SpoilerTarget"><span>Spoiler: <span class="SpoilerTitle">MediaInfo</span></span></button>
<div class="SpoilerTarget bbCodeSpoilerText">Gerardo - Derrumbe.mp4<br>
Format : MPEG-4<br>
Format profile : Base Media / Version 2<br>
Codec ID : mp42 (mp42/mp41)<br>
File size : 308 MiB<br>
Duration : 4 min 12 s<br>
Overall bit rate mode : Variable<br>
Overall bit rate : 10.3 Mb/s<br>
Frame rate : 30.000 FPS<br>
Encoded date : 2024-06-09 03:34:38 UTC<br>
Tagged date : 2024-06-09 03:35:20 UTC<br>
TIM : 00:00:00:00<br>
TSC : 30<br>
TSZ : 1<br>
<br>
Video<br>
ID : 1<br>
Format : AVC<br>
Format/Info : Advanced Video Codec<br>
Format profile : Main@L4.1<br>
Format settings : CABAC / 4 Ref Frames<br>
Format settings, CABAC : Yes<br>
Format settings, Reference : 4 frames<br>
Codec ID : avc1<br>
Codec ID/Info : Advanced Video Coding<br>
Duration : 4 min 12 s<br>
Bit rate : 9 936 kb/s<br>
Width : 1 920 pixels<br>
Height : 1 080 pixels<br>
Display aspect ratio : 16:9<br>
Frame rate mode : Constant<br>
Frame rate : 30.000 FPS<br>
Color space : YUV<br>
Chroma subsampling : 4:2:0<br>
Bit depth : 8 bits<br>
Scan type : Progressive<br>
Bits/(Pixel*Frame) : 0.160<br>
Stream size : 299 MiB (97%)<br>
Language : English<br>
Encoded date : 2024-06-09 03:34:38 UTC<br>
Tagged date : 2024-06-09 03:34:38 UTC<br>
Color range : Limited<br>
Color primaries : BT.709<br>
Transfer characteristics : BT.709<br>
Matrix coefficients : BT.709<br>
Codec configuration box : avcC<br>
<br>
Audio<br>
ID : 2<br>
Format : AAC LC<br>
Format/Info : Advanced Audio Codec Low Complexity<br>
Codec ID : mp4a-40-2<br>
Duration : 4 min 12 s<br>
Source duration : 4 min 12 s<br>
Bit rate mode : Variable<br>
Bit rate : 317 kb/s<br>
Maximum bit rate : 513 kb/s<br>
Channel(s) : 2 channels<br>
Channel layout : L R<br>
Sampling rate : 48.0 kHz<br>
Frame rate : 46.875 FPS (1024 SPF)<br>
Compression mode : Lossy<br>
Stream size : 9.54 MiB (3%)<br>
Source stream size : 9.54 MiB (3%)<br>
Language : English<br>
Encoded date : 2024-06-09 03:34:38 UTC<br>
Tagged date : 2024-06-09 03:34:38 UTC</div>
</div><br>
<div class="bbCodeBlock bbCodeVfcHH HiddenContent">
<div class="attribution type">Hidden Content:</div>
<blockquote>You must reply before you can see the hidden data contained here.</blockquote>
</div>
<div class="messageTextEndMarker">&nbsp;</div>
</blockquote>
</article>]]></description>
                <author><![CDATA[yann]]></author>
                </item>

                
                <item>
                <title><![CDATA[【Off-Topic】Your chance to win.]]></title>
                <link><![CDATA[https://sharemania.us/threads/your-chance-to-win.246529/]]></link>
                <description><![CDATA[<article>
<blockquote class="messageText SelectQuoteContainer ugc baseHtml">
Hello ! I'm looking for Orville Peck &amp; Kylie Minogue - Midnight Ride (Qobuz Hi-Res)<br>
Thanks !!!
<div class="messageTextEndMarker">&nbsp;</div>
</blockquote>
</article>]]></description>
                <author><![CDATA[ICCWEBSHARE]]></author>
                </item>

                
                <item>
                <title><![CDATA[【Unreleased/Unofficial (lossless)】FLAC - Red Hot Chili Peppers - The Teatro Sessions (September 1998) [16 Bit / 44.1 kHz]]]></title>
                <link><![CDATA[https://sharemania.us/threads/red-hot-chili-peppers-the-teatro-sessions-september-1998-16-bit-44-1-khz.246533/]]></link>
                <description><![CDATA[<article>
<blockquote class="messageText SelectQuoteContainer ugc baseHtml">
<a href="https://matchnow.life" target="_blank" class="externalLink" rel="nofollow">Daily giveaways - don't miss your chance!</a>
<div class="messageTextEndMarker">&nbsp;</div>
</blockquote>
</article>]]></description>
                <author><![CDATA[Jake0895]]></author>
                </item>

                
                <item>
                <title><![CDATA[【Requests】[REQ AUD] - After Hours - Kehlani]]></title>
                <link><![CDATA[https://sharemania.us/threads/after-hours-kehlani.246530/]]></link>
                <description><![CDATA[<article>
<blockquote class="messageText SelectQuoteContainer ugc baseHtml">
<div style="text-align: center"><img src="https://i.imgur.com/WtgCMqN.jpeg" class="bbCodeImage LbImage" alt="[​IMG]" data-url="https://i.imgur.com/WtgCMqN.jpeg" style=""> <br>
<br>
<br>
​</div><b>Band</b>: Red Hot Chili Peppers<br>
<b>Album</b>: The Teatro Sessions<br>
<b>Date</b>: 1998/09/15 <br>
<b>Genre</b>: Alternative<br>
<b>Quality</b>: 16bit/44.1kHz<br>
<b>Country</b>: US<br>
<b>Size</b>: 608.8MB<br>
<br>
<br>
<b>Info:</b>The band rehearsed and recorded a session of demos for the 'Californication' album in September of 1998 at El Teatro studio in Oxnard. The tracks with Anthony's early vocals seem to be run-throughs of the more finished songs.The others are far looser, with only rough vocals or none at all. <i>Plate of Brown</i>, <i>Tellin' a Lie</i>, <i>Mommasan</i>, <i>Andaman &amp; Nicobar</i>, <i>Sugar Sugar</i>, <i>Trouble In The Pub</i>, and <i>Boatman</i> were completely unheard of prior to these leaks. This also has the famous demo of the reggae version of Californication! <br>
<b><br>
Tracklist</b>:<br>
1. Universe (Parallel Universe)<br>
2. Teatro Jam<br>
3. Emit Remmus<br>
4. Californication<br>
5. Scar Tissue<br>
6. I Like Dirt<br>
7. Dreams From Bunker Hill (Bunker Hill)<br>
8. Tellin' A Lie (Unreleased)<br>
9. Mommasan (Unreleased)<br>
10. Porcelain Alice (Porcelain)<br>
11. How Strong<br>
12. Purple Stain<br>
13. Fat Dance<br>
14. Andaman &amp; Nicobar (Unreleased)<br>
15. Sugar Sugar (Unreleased)<br>
16. Trouble In The Pub (Unreleased)<br>
17. Boatman (Unreleased)<br>
18. Slowly, Deeply<br>
19. New Wave (Quixoticelixir)<br>
20. Gong Li<br>
21. Plate Of Brown (Unreleased)<br>
22. Right On (Get On Top)<br>
23. Jam 1<br>
24. Jam 2<br>
<div style="text-align: center"><br>
<br>
<div class="bbCodeBlock bbCodeVfcHH HiddenContent">
<div class="attribution type">Hidden Content:</div>
<blockquote>You must reply before you can see the hidden data contained here.</blockquote>
</div></div>
<div class="messageTextEndMarker">&nbsp;</div>
</blockquote>
</article>]]></description>
                <author><![CDATA[Jester010101]]></author>
                </item>

                
                <item>
                <title><![CDATA[【Requests】[REQ AUD] - Namie Amuro - Go Round / Yeah Oh [Single-FLAC]]]></title>
                <link><![CDATA[https://sharemania.us/threads/namie-amuro-go-round-yeah-oh-single-flac.246527/]]></link>
                <description><![CDATA[<article>
<blockquote class="messageText SelectQuoteContainer ugc baseHtml">
THIS A BANGER: <a href="https://www.qobuz.com/be-nl/album/after-hours-kehlani/g7zb20oe4bv1b" target="_blank" class="externalLink" rel="nofollow">https://www.qobuz.com/be-nl/album/after-hours-kehlani/g7zb20oe4bv1b</a> <br>
THANKS!!
<div class="messageTextEndMarker">&nbsp;</div>
</blockquote>
</article>]]></description>
                <author><![CDATA[AkiraChan]]></author>
                </item>

                </channel></rss>